<?xml version="1.0" encoding="UTF-8" standalone="no"?>
<svg
   xmlns:dc="http://purl.org/dc/elements/1.1/"
   xmlns:cc="http://creativecommons.org/ns#"
   xmlns:rdf="http://www.w3.org/1999/02/22-rdf-syntax-ns#"
   xmlns:svg="http://www.w3.org/2000/svg"
   xmlns="http://www.w3.org/2000/svg"
   xmlns:sodipodi="http://sodipodi.sourceforge.net/DTD/sodipodi-0.dtd"
   xmlns:inkscape="http://www.inkscape.org/namespaces/inkscape"
   width="56.175377mm"
   height="55.866627mm"
   viewBox="0 0 56.175377 55.866627"
   version="1.1"
   id="svg8"
   sodipodi:docname="para.svg"
   inkscape:export-filename="F:\pisc.png"
   inkscape:export-xdpi="400"
   inkscape:export-ydpi="400"
   inkscape:version="1.0.2-2 (e86c870879, 2021-01-15)">
  <defs
     id="defs2">
    <pattern
       id="EMFhbasepattern"
       patternUnits="userSpaceOnUse"
       width="6"
       height="6"
       x="0"
       y="0" />
    <pattern
       id="EMFhbasepattern-2"
       patternUnits="userSpaceOnUse"
       width="6"
       height="6"
       x="0"
       y="0" />
    <pattern
       id="EMFhbasepattern-6"
       patternUnits="userSpaceOnUse"
       width="6"
       height="6"
       x="0"
       y="0" />
  </defs>
  <sodipodi:namedview
     id="base"
     pagecolor="#ffffff"
     bordercolor="#666666"
     borderopacity="1.0"
     inkscape:pageopacity="0.0"
     inkscape:pageshadow="2"
     inkscape:zoom="0.98994949"
     inkscape:cx="84.000905"
     inkscape:cy="75.123357"
     inkscape:document-units="mm"
     inkscape:current-layer="layer1"
     inkscape:document-rotation="0"
     showgrid="false"
     inkscape:window-width="1920"
     inkscape:window-height="1017"
     inkscape:window-x="-8"
     inkscape:window-y="-8"
     inkscape:window-maximized="1" />
  <metadata
     id="metadata5">
    <rdf:RDF>
      <cc:Work
         rdf:about="">
        <dc:format>image/svg+xml</dc:format>
        <dc:type
           rdf:resource="http://purl.org/dc/dcmitype/StillImage" />
        <dc:title />
      </cc:Work>
    </rdf:RDF>
  </metadata>
  <g
     inkscape:label="Calque 1"
     inkscape:groupmode="layer"
     id="layer1"
     transform="translate(-40.867871,-58.394733)">
    <path
       style="fill:#0460d9;fill-opacity:0.5;fill-rule:evenodd;stroke:none;stroke-width:0.264583"
       d="m 67.859922,66.492349 -0.169323,0.01 -0.179282,0.02988 -0.169322,0.0498 -0.159363,0.06972 -10.478096,5.627494 -0.169323,0.109561 -0.159362,0.119523 -0.129483,0.149402 -0.119522,0.169323 -6.264944,10.109569 -0.08964,0.169323 -0.06972,0.189243 -0.0498,0.189243 -0.01992,0.199204 -0.378487,11.882479 0.01,0.199202 0.02988,0.199205 0.05976,0.179282 0.07968,0.179284 5.627495,10.498014 0.0996,0.16933 0.129482,0.15936 0.139443,0.12948 0.149402,0.0996 10.11953,6.27491 0.179283,0.0996 0.189243,0.0697 0.189243,0.0398 0.189243,0.01 11.9024,0.37848 0.07968,0.01 0.179281,-0.01 0.169323,-0.0398 0.169323,-0.0598 0.159364,-0.0797 10.498015,-5.60757 0.159362,-0.10957 0.149402,-0.11952 0.129484,-0.1494 0.119521,-0.15936 6.284864,-10.119533 0.07968,-0.169323 0.06972,-0.189243 0.03984,-0.189243 0.01992,-0.199202 0.388448,-11.902401 -0.01,-0.189243 -0.03984,-0.189243 -0.05976,-0.189243 -0.07968,-0.169323 -5.627494,-10.498016 -0.0996,-0.169323 -0.129482,-0.149402 -0.139443,-0.139443 -0.149402,-0.0996 -10.11953,-6.274905 -0.169322,-0.0996 -0.189244,-0.06972 -0.189243,-0.0498 -0.199202,-0.01992 -11.9024,-0.358566 h -0.07968 z"
       id="path6065" />
    <path
       style="fill:#f22e76;fill-opacity:1;fill-rule:evenodd;stroke:none;stroke-width:0.264583"
       d="m 69.164704,58.394733 c -0.05976,0 -0.109561,0 -0.159361,0.01 l -11.87252,0.976097 c -0.268924,0.01 -0.517928,0.0996 -0.737052,0.249004 l -9.780884,6.782873 c -0.219123,0.159363 -0.398406,0.358566 -0.498008,0.59761 l -5.089645,10.766941 c -0.109562,0.229084 -0.159363,0.498008 -0.129482,0.756972 l 0.976096,11.86256 c 0.01992,0.278884 0.109562,0.507968 0.249004,0.727091 l 6.782874,9.790839 c 0.149402,0.21913 0.358566,0.39841 0.59761,0.50797 l 10.76694,5.08965 c 0.189243,0.0797 0.398407,0.12948 0.59761,0.12948 0.05976,0 0.109562,0 0.159363,-0.01 l 11.872517,-0.97606 c 0.249005,-0.01 0.498009,-0.0996 0.717132,-0.249 l 9.800804,-6.782873 c 0.209164,-0.159364 0.378487,-0.358566 0.49801,-0.597612 l 5.089644,-10.766938 c 0.109564,-0.229084 0.149405,-0.498009 0.129484,-0.756973 L 88.158742,74.639765 C 88.138821,74.36088 88.049181,74.131797 87.889819,73.912673 L 81.126866,64.121829 C 80.957543,63.902705 80.758338,63.723422 80.529254,63.61386 L 69.762316,58.524215 c -0.189244,-0.07968 -0.398407,-0.129482 -0.597612,-0.129482 z"
       id="path6067" />
    <path
       style="fill:#ffffff;fill-opacity:1;fill-rule:evenodd;stroke:none;stroke-width:0.264583"
       d="m 65.031235,82.528217 -4.22311,24.063763 c 0,0 0.07968,0.01 0.278884,0.01 0.239045,0 0.657372,-0.0199 1.284862,-0.0697 1.135459,-0.0896 9.651402,-0.78685 9.651402,-0.78685 0,0 0.856575,-0.0199 1.344623,-0.25897 -0.677291,-2.14143 -8.336661,-22.958181 -8.336661,-22.958181 z"
       id="path6069" />
    <path
       style="fill:#ffffff;fill-opacity:1;fill-rule:evenodd;stroke:none;stroke-width:0.264583"
       d="m 65.031235,82.518257 c -0.01,0 -20.94623,7.300802 -23.037865,8.147416 0.119522,0.507968 0.667331,1.19522 0.667331,1.19522 0,0 4.850601,7.011959 5.498012,7.948213 0.647411,0.946214 0.956176,1.245024 0.956176,1.245024 z"
       id="path6071" />
    <path
       style="fill:#ffffff;fill-opacity:1;fill-rule:evenodd;stroke:none;stroke-width:0.264583"
       d="m 80.937622,63.972427 -15.906387,18.53587 v 0 c 0,0 20.93627,-7.300802 23.027907,-8.147417 -0.119523,-0.527888 -0.667332,-1.19522 -0.667332,-1.19522 0,0 -4.850601,-7.011957 -5.498012,-7.948213 -0.647412,-0.946216 -0.956176,-1.24502 -0.956176,-1.24502 z"
       id="path6073" />
    <path
       style="fill:#ffffff;fill-opacity:1;fill-rule:evenodd;stroke:none;stroke-width:0.264583"
       d="m 68.806138,58.444534 c -0.258964,0 -0.647409,0.01 -1.215139,0.05976 -1.13546,0.08964 -9.651402,0.796813 -9.651402,0.796813 0,0 -0.856574,0.01992 -1.334663,0.249004 0.667332,2.151396 8.33666,22.958185 8.33666,22.958185 l 4.22311,-24.053803 c 0,0 -0.109561,-0.01 -0.358566,-0.01 z"
       id="path6075" />
    <path
       style="fill:#ffffff;fill-opacity:1;fill-rule:evenodd;stroke:none;stroke-width:0.264583"
       d="m 46.126839,66.920636 c 0,0 -0.249004,0.338645 -0.737052,1.384463 -0.468128,1.025897 -4.093629,8.764947 -4.093629,8.764947 0,0 -0.398406,0.766933 -0.428287,1.284861 2.181277,0.488049 24.063763,4.16335 24.063763,4.16335 z"
       id="path6077" />
    <path
       style="fill:#ffffff;fill-opacity:1;fill-rule:evenodd;stroke:none;stroke-width:0.264583"
       d="m 65.021275,82.528217 18.794834,15.597621 c 0,0 0.249005,-0.338646 0.717132,-1.384464 0.488048,-1.025896 4.113549,-8.754986 4.113549,-8.754986 0,0 0.398407,-0.756973 0.428289,-1.29482 C 86.893801,86.20352 65.021275,82.528217 65.021275,82.528217 Z"
       id="path6079" />
    <path
       style="fill:#4c4c4c;fill-opacity:1;fill-rule:evenodd;stroke:none;stroke-width:0.264583"
       d="M 65.041196,82.518257 Z"
       id="path6081" />
  </g>
</svg>
